# xmcd CD database file
#
# Track frame offsets:
#	150
#	12392
#	24217
#	47062
#
# Disc length: 832 seconds
#
# Revision: 0
# Processed by: cddbd v1.5.2PL0 Copyright (c) Steve Scherf et al.
# Submitted via: CDex 2.12
#
DISCID=24033e04
DTITLE=Reverend Billy C. Wirtz - Rib Ticklin'
DYEAR=2000
DGENRE=Blues
TTITLE0=Rib Ticklin'
TTITLE1=The Visitor
TTITLE2=Love and Bar-B-Que
TTITLE3=What I Used to Do All Night
EXTD=YEAR: 2000
EXTT0=
EXTT1=
EXTT2=
EXTT3=
PLAYORDER=
